<svg xmlns="http://www.w3.org/2000/svg" width="1300" height="250" viewBox="0 0 1300 250">
<defs><marker id="a" markerWidth="10" markerHeight="10" refX="8" refY="3" orient="auto"><path d="M0,0 L0,6 L9,3 z" fill="#687386"/></marker></defs>
<rect width="1300" height="250" fill="#ffffff"/>
<rect x="45" y="70" rx="18" width="145" height="72" fill="#f7f9fc" stroke="#dce2ee"/><text x="117" y="114" text-anchor="middle" font-family="Arial" font-size="19" font-weight="700" fill="#0b1020">Observe</text><line x1="190" y1="106" x2="215" y2="106" stroke="#687386" stroke-width="2.3" marker-end="url(#a)"/>
<rect x="220" y="70" rx="18" width="145" height="72" fill="#f7f9fc" stroke="#dce2ee"/><text x="292" y="114" text-anchor="middle" font-family="Arial" font-size="19" font-weight="700" fill="#0b1020">Interpret</text><line x1="365" y1="106" x2="390" y2="106" stroke="#687386" stroke-width="2.3" marker-end="url(#a)"/>
<rect x="395" y="70" rx="18" width="145" height="72" fill="#f7f9fc" stroke="#dce2ee"/><text x="467" y="114" text-anchor="middle" font-family="Arial" font-size="19" font-weight="700" fill="#0b1020">Plan</text><line x1="540" y1="106" x2="565" y2="106" stroke="#687386" stroke-width="2.3" marker-end="url(#a)"/>
<rect x="570" y="70" rx="18" width="145" height="72" fill="#f7f9fc" stroke="#dce2ee"/><text x="642" y="114" text-anchor="middle" font-family="Arial" font-size="19" font-weight="700" fill="#0b1020">Act</text><line x1="715" y1="106" x2="740" y2="106" stroke="#687386" stroke-width="2.3" marker-end="url(#a)"/>
<rect x="745" y="70" rx="18" width="145" height="72" fill="#fff6df" stroke="#dce2ee"/><text x="817" y="114" text-anchor="middle" font-family="Arial" font-size="19" font-weight="700" fill="#0b1020">Verify</text><line x1="890" y1="106" x2="915" y2="106" stroke="#687386" stroke-width="2.3" marker-end="url(#a)"/>
<rect x="920" y="70" rx="18" width="145" height="72" fill="#f7f9fc" stroke="#dce2ee"/><text x="992" y="114" text-anchor="middle" font-family="Arial" font-size="19" font-weight="700" fill="#0b1020">Update state</text><line x1="1065" y1="106" x2="1090" y2="106" stroke="#687386" stroke-width="2.3" marker-end="url(#a)"/>
<rect x="1095" y="70" rx="18" width="145" height="72" fill="#fff6df" stroke="#dce2ee"/><text x="1167" y="114" text-anchor="middle" font-family="Arial" font-size="19" font-weight="700" fill="#0b1020">Recover</text>
<text x="45" y="192" font-family="Arial" font-size="15" fill="#697386">If verification fails, the trajectory is tagged, logged, and routed into the next failure-conditioned training distribution.</text>
</svg>